<svg display="none" width="0" height="0" xmlns="http://www.w3.org/2000/svg">

  <!-- large, 24 x 24 -->

  <symbol id="icon-alert" viewBox="0 0 24 24">
    <g fill="none">
      <path d="M12 22C17.5228 22 22 17.5228 22 12C22 6.47715 17.5228 2 12 2C6.47715 2 2 6.47715 2 12C2 17.5228 6.47715 22 12 22Z" stroke-linecap="round" stroke-linejoin="round"/>
      <path d="M12 8V12" stroke-linecap="round" stroke-linejoin="round"/>
      <path d="M12 16H12.01" stroke-linecap="round" stroke-linejoin="round"/>
    </g>
  </symbol>

  <symbol id="icon-arrow-left" viewBox="0 0 24 24">
    <g fill="none">
      <path d="M19 12H5" stroke-linecap="round" stroke-linejoin="round"/>
      <path d="M12 19L5 12L12 5" stroke-linecap="round" stroke-linejoin="round"/>
    </g>
  </symbol>

  <symbol id="icon-arrow-right" viewBox="0 0 24 24">
    <g fill="none">
      <path d="M5 12H19" stroke-linecap="round" stroke-linejoin="round"/>
      <path d="M12 5L19 12L12 19" stroke-linecap="round" stroke-linejoin="round"/>
    </g>
  </symbol>

  <symbol id="icon-check" viewBox="0 0 24 24">
    <g fill="none">
      <path d="M20 6L9.00003 17L4.00003 12" stroke-linecap="round" stroke-linejoin="round"/>
    </g>
  </symbol>

  <symbol id="icon-chevron-down" viewBox="0 0 24 24">
    <g fill="none">
      <path d="M6 9L12 15L18 9" stroke-linecap="round" stroke-linejoin="round"/>
    </g>
  </symbol>

  <symbol id="icon-close" viewBox="0 0 24 24">
    <g fill="none">
      <path d="M18 6L6 18" stroke-linecap="round" stroke-linejoin="round"/>
      <path d="M6 6L18 18" stroke-linecap="round" stroke-linejoin="round"/>
    </g>
  </symbol>

  <symbol id="icon-expand" viewBox="0 0 24 24">
    <g fill="none">
      <path d="M15 3H21V9" stroke-linecap="round" stroke-linejoin="round"/>
      <path d="M9 21H3V15" stroke-linecap="round" stroke-linejoin="round"/>
      <path d="M21 3L14 10" stroke-linecap="round" stroke-linejoin="round"/>
      <path d="M3 21L10 14" stroke-linecap="round" stroke-linejoin="round"/>
    </g>
  </symbol>

  <symbol id="icon-label-tree" viewBox="0 0 24 24">
    <g fill="none">
      <path d="M18 21C19.6569 21 21 19.6569 21 18C21 16.3431 19.6569 15 18 15C16.3431 15 15 16.3431 15 18C15 19.6569 16.3431 21 18 21Z" stroke-linecap="round" stroke-linejoin="round"/>
      <path d="M6 9C7.65685 9 9 7.65685 9 6C9 4.34315 7.65685 3 6 3C4.34315 3 3 4.34315 3 6C3 7.65685 4.34315 9 6 9Z" stroke-linecap="round" stroke-linejoin="round"/>
      <path d="M13 6H16C16.5304 6 17.0391 6.21071 17.4142 6.58579C17.7893 6.96086 18 7.46957 18 8V15" stroke-linecap="round" stroke-linejoin="round"/>
      <path d="M6 9V21" stroke-linecap="round" stroke-linejoin="round"/>
    </g>
  </symbol>

  <symbol id="icon-lock" viewBox="0 0 24 24">
    <g fill="none">
      <path d="M19 11H5C3.89543 11 3 11.8954 3 13V20C3 21.1046 3.89543 22 5 22H19C20.1046 22 21 21.1046 21 20V13C21 11.8954 20.1046 11 19 11Z" stroke-linecap="round" stroke-linejoin="round"/>
      <path d="M7 11V7C7 5.67392 7.52678 4.40215 8.46447 3.46447C9.40215 2.52678 10.6739 2 12 2C13.3261 2 14.5979 2.52678 15.5355 3.46447C16.4732 4.40215 17 5.67392 17 7V11" stroke-linecap="round" stroke-linejoin="round"/>
    </g>
  </symbol>

  <symbol id="icon-map" viewBox="0 0 24 24">
    <g fill="none">
      <path d="M1 6V22L8 18L16 22L23 18V2L16 6L8 2L1 6Z" stroke-linecap="round" stroke-linejoin="round"/>
      <path d="M8 2V18" stroke-linecap="round" stroke-linejoin="round"/>
      <path d="M16 6V22" stroke-linecap="round" stroke-linejoin="round"/>
    </g>
  </symbol>

  <symbol id="icon-menu" viewBox="0 0 24 24">
    <g fill="none">
      <path d="M12 13C12.5523 13 13 12.5523 13 12C13 11.4477 12.5523 11 12 11C11.4477 11 11 11.4477 11 12C11 12.5523 11.4477 13 12 13Z" stroke-linecap="round" stroke-linejoin="round"/>
      <path d="M12 6C12.5523 6 13 5.55228 13 5C13 4.44772 12.5523 4 12 4C11.4477 4 11 4.44772 11 5C11 5.55228 11.4477 6 12 6Z" stroke-linecap="round" stroke-linejoin="round"/>
      <path d="M12 20C12.5523 20 13 19.5523 13 19C13 18.4477 12.5523 18 12 18C11.4477 18 11 18.4477 11 19C11 19.5523 11.4477 20 12 20Z" stroke-linecap="round" stroke-linejoin="round"/>
    </g>
  </symbol>

  <symbol id="icon-minimize" viewBox="0 0 24 24">
    <g fill="none">
      <path d="M4 14H10V20" stroke-linecap="round" stroke-linejoin="round"/>
      <path d="M20 10H14V4" stroke-linecap="round" stroke-linejoin="round"/>
      <path d="M14 10L21 3" stroke-linecap="round" stroke-linejoin="round"/>
      <path d="M3 21L10 14" stroke-linecap="round" stroke-linejoin="round"/>
    </g>
  </symbol>

  <symbol id="icon-minus" viewBox="0 0 24 24">
    <g fill="none">
      <path d="M5 12H19" stroke-linecap="round" stroke-linejoin="round"/>
    </g>
  </symbol>

  <symbol id="icon-plus" viewBox="0 0 24 24">
    <g fill="none">
      <path d="M12 5V19" stroke-linecap="round" stroke-linejoin="round"/>
      <path d="M5 12H19" stroke-linecap="round" stroke-linejoin="round"/>
    </g>
  </symbol>

  <symbol id="icon-search" viewBox="0 0 24 24">
    <g fill="none">
      <path d="M11 19C15.4183 19 19 15.4183 19 11C19 6.58172 15.4183 3 11 3C6.58172 3 3 6.58172 3 11C3 15.4183 6.58172 19 11 19Z" stroke-linecap="round" stroke-linejoin="round"/>
      <path d="M21 21L16.65 16.65" stroke-linecap="round" stroke-linejoin="round"/>
    </g>
  </symbol>

  <symbol id="icon-edit" viewBox="0 0 24 24">
    <g fill="none">
      <path d="m16.9999504 3.0000601c.2626495-.26265.5744991-.4709849.9176998-.6131251.34305-.1421399.7108498-.2153101 1.0823994-.2153101.3714008 0 .7392006.0731702 1.0824013.2153101.3430481.1421401.6548996.3504751.9175491.6131251.2626495.2626348.4710007.5744398.6130505.9176097.1421986.3431554.2154007.7109551.2154007 1.0823851 0 .3714304-.0732021.7392302-.2154007 1.0823998-.1420498.3431554-.350401.6549606-.6130505.9176101l-13.5 13.4999848-5.5000048 1.5 1.4999996-5.5000496z" stroke-linecap="round" stroke-linejoin="round"/>
    </g>
  </symbol>

  <symbol id="icon-image" viewBox="0 0 24 24">
    <g fill="none" stroke-linecap="round" stroke-linejoin="round">
      <path d="m19.0000496 3h-14.0000548c-1.1045697 0-1.9999948.8954251-1.9999948 1.9999948v14.0000553c0 1.1044497.8954251 1.9999499 1.9999948 1.9999499h14.0000553c1.1044497 0 1.9999499-.8955002 1.9999499-1.9999504v-14.0000548c0-1.1045697-.8955002-1.9999948-1.9999504-1.9999948z"/>
      <path d="m8.4999895 9.9999447c.8284349 0 1.5-.6715794 1.5-1.5 0-.8284349-.6715651-1.5-1.5-1.5-.8284197 0-1.5.6715651-1.5 1.5 0 .8284206.6715803 1.5 1.5 1.5z"/>
      <path d="m21 14.9999399-4.9999504-4.9999952-11.0000396 11.0000553"/>
    </g>
  </symbol>

  <symbol id="icon-download" viewBox="0 0 24 24">
    <g fill="none" stroke-linecap="round" stroke-linejoin="round">
      <path d="m21 15v4.0000496c0 .5303993-.2107506 1.0390511-.5857506 1.4141998-.3751488.375-.8838005.5857506-1.4141998.5857506h-14.0000548c-.5304294 0-1.0391397-.2107506-1.4142146-.5857506-.3750601-.3751488-.5857802-.8838005-.5857802-1.4141998v-4.0000496"/>
      <path d="m7.0000048 9.9999447 4.9999952 4.9999952 4.9999504-4.9999952"/>
      <path d="m12 15v-12"/>
    </g>
  </symbol>

  <!-- small, 16 x 16 -->

  <!-- <symbol id="icon-edit" viewBox="0 0 16 16">
    <g fill="none">
      <path d="M11.3333 2.00004C11.5084 1.82494 11.7163 1.68605 11.9451 1.59129C12.1738 1.49653 12.419 1.44775 12.6667 1.44775C12.9143 1.44775 13.1595 1.49653 13.3883 1.59129C13.617 1.68605 13.8249 1.82494 14 2.00004C14.1751 2.17513 14.314 2.383 14.4087 2.61178C14.5035 2.84055 14.5523 3.08575 14.5523 3.33337C14.5523 3.58099 14.5035 3.82619 14.4087 4.05497C14.314 4.28374 14.1751 4.49161 14 4.66671L5 13.6667L1.33333 14.6667L2.33333 11L11.3333 2.00004Z" stroke-linecap="round" stroke-linejoin="round"/>
    </g>
  </symbol> -->

  <!-- <symbol id="icon-image" viewBox="0 0 16 16">
    <g fill="none">
      <path d="M12.6667 2H3.33333C2.59695 2 2 2.59695 2 3.33333V12.6667C2 13.403 2.59695 14 3.33333 14H12.6667C13.403 14 14 13.403 14 12.6667V3.33333C14 2.59695 13.403 2 12.6667 2Z" stroke-linecap="round" stroke-linejoin="round"/>
      <path d="M5.66666 6.66663C6.21895 6.66663 6.66666 6.21891 6.66666 5.66663C6.66666 5.11434 6.21895 4.66663 5.66666 4.66663C5.11438 4.66663 4.66666 5.11434 4.66666 5.66663C4.66666 6.21891 5.11438 6.66663 5.66666 6.66663Z" stroke-linecap="round" stroke-linejoin="round"/>
      <path d="M14 9.99996L10.6667 6.66663L3.33334 14" stroke-linecap="round" stroke-linejoin="round"/>
    </g>
  </symbol> -->

  <!-- <symbol id="icon-download" viewBox="0 0 16 16">
    <g fill="none">
      <path d="M14 10V12.6667C14 13.0203 13.8595 13.3594 13.6095 13.6095C13.3594 13.8595 13.0203 14 12.6667 14H3.33333C2.97971 14 2.64057 13.8595 2.39052 13.6095C2.14048 13.3594 2 13.0203 2 12.6667V10" stroke-linecap="round" stroke-linejoin="round"/>
      <path d="M4.66667 6.66663L8 9.99996L11.3333 6.66663" stroke-linecap="round" stroke-linejoin="round"/>
      <path d="M8 10V2" stroke-linecap="round" stroke-linejoin="round"/>
    </g>
  </symbol> -->

</svg>
