<svg display="none" width="0" height="0" xmlns="http://www.w3.org/2000/svg">
  <symbol id="icon-plus" viewBox="0 0 20 20">
    <path d="m10 18.9997253c-.6212769 0-1.125-.5031738-1.125-1.125v-15.7494506c0-.6212769.5037231-1.125 1.125-1.125.6218262 0 1.125.5037231 1.125 1.125v15.7494507c0 .6218261-.5031738 1.1249999-1.125 1.1249999z"/>
    <path d="m17.875 11.125h-15.75c-.6212769 0-1.125-.5037231-1.125-1.125s.5037231-1.125 1.125-1.125h15.75c.6218262 0 1.125.5037231 1.125 1.125s-.5031738 1.125-1.125 1.125z"/>
  </symbol>
  <symbol id="icon-chevron-down" viewBox="0 0 20 20">
    <path d="m10 15.1428576c-.3289623 0-.6579237-.1255589-.9090405-.3766747l-7.7142854-7.7142854c-.5022321-.5022326-.5022321-1.3158484 0-1.8180804s1.3158482-.5022321 1.8180803 0l6.8052456 6.8052454 6.8052464-6.8052454c.5022316-.5022321 1.3158474-.5022321 1.818079 0 .5022335.5022321.5022335 1.3158479 0 1.8180804l-7.7142849 7.7142854c-.2511168.2511158-.5800782.3766747-.9090405.3766747z" fill="#001252"/>
  </symbol>
</svg>
