<svg enable-background="new 0 0 34 34" viewBox="0 0 34 34" xmlns="http://www.w3.org/2000/svg"><g fill="#001252"><path clip-rule="evenodd" d="m17 1c-8.8366013 0-16 7.1633987-16 16s7.1633987 16 16 16 16-7.1633987 16-16-7.1633987-16-16-16zm-3.5177994 7.5181999c.9101982-.0415001 1.2010994-.0516014 3.5186005-.0516014h-.0027008c2.3182983 0 2.6081009.0101013 3.5183029.0516014.9083939.0415993 1.5289001.1854019 2.0728989.3964005.5617981.2178001 1.036499.5093002 1.5111008.9840012.4747009.4742966.7662964.9503975.9848938 1.5116997.2098007.5425987.3538055 1.1627007.3964996 2.0710983.0409012.910202.051506 1.2010994.051506 3.5186005 0 2.3176003-.0106049 2.6077003-.051506 3.5178986-.0426941.9081001-.1866989 1.5284004-.3964996 2.0712013-.2185974.5610008-.5101929 1.0371017-.9848938 1.5113983-.4741058.4747009-.949501.7670021-1.5106049.9849014-.5429001.2111015-1.1636963.3549004-2.072197.3964996-.910202.0414009-1.2002029.0515022-3.5179024.0515022-2.3172989 0-2.6079979-.0101013-3.5181999-.0515022-.9082985-.0415993-1.5285988-.1853981-2.0714989-.3964996-.5609016-.2178993-1.0369987-.5102005-1.5111008-.9849014-.4744987-.4742966-.766098-.9503975-.9841995-1.5115967-.2108994-.5426025-.3546982-1.1627007-.3964996-2.0712013-.0411987-.9102021-.0514984-1.2001-.0514984-3.5177003 0-2.3175011.0105972-2.6085014.0513-3.5187988.0408974-.9081001.1848984-1.5283012.3964996-2.0711021.2187004-.5611.5102005-1.0372009.9848976-1.5114975.4743004-.4745026.9504013-.7660027 1.5116997-.9840012.5425034-.2109986 1.1626016-.3548012 2.0711022-.3964005z" fill-rule="evenodd"/><path clip-rule="evenodd" d="m16.235199 10.0046005c.1487007-.0003014.3086014-.0002022.481102-.0000992l.2845001.0000992c2.2783966 0 2.5484009.0081978 3.4481964.0489998.8320007.0381012 1.2835007.1771011 1.5843048.2938995.3983002.1547012.6821976.3395996.9806976.6381989.2985992.2987022.4834976.5832024.6386032.9813995.1167984.3004036.2559967.7520027.2938004 1.5840034.0408936.8995972.0497971 1.1697998.0497971 3.4470978 0 2.277401-.0089035 2.5475998-.0497971 3.4472008-.038002.8320007-.177002 1.2835999-.2938004 1.5839996-.1547012.398201-.340004.6818008-.6386032.9803009-.2986984.2986984-.5822983.4834976-.9806976.6381989-.3003998.1174011-.7523041.2560005-1.5843048.2941017-.8995972.0408974-1.1697998.0496979-3.4481964.0496979-2.2786026 0-2.5487022-.0088005-3.4482994-.0496979-.8320007-.0384026-1.2835007-.1775017-1.5845032-.2943001-.3981972-.1546021-.6826973-.3395004-.9813995-.6382027-.2985992-.2986984-.4834976-.5823975-.6385002-.9807968-.1167984-.3004036-.2560005-.7520027-.2938995-1.5840034-.0408974-.8995972-.049099-1.1697998-.049099-3.448597 0-2.278801.0082016-2.5475998.049099-3.4471016.038002-.8320007.1771011-1.2835999.2938995-1.5844002.1546021-.398201.339901-.6827011.6385002-.9813004.2987022-.2986984.5832024-.4836006.9813995-.6385994.3008003-.1174011.7525024-.2560005 1.5845032-.2943001.7873001-.0354996 1.0922966-.0461998 2.6826973-.0480003zm5.3206024 1.4166985c-.5653 0-1.0240021.4580994-1.0240021 1.0236015 0 .5653.4587021 1.0239983 1.0240021 1.0239983.5653992 0 1.0240021-.4586983 1.0240021-1.0239983s-.4586029-1.0240021-1.0240021-1.0240021zm-8.9373016 5.578701c0-2.4199982 1.9620018-4.3820992 4.382103-4.3821983 2.4200974 0 4.3816986 1.9620972 4.3816986 4.3821983 0 2.4202003-1.9614029 4.3814011-4.3815002 4.3814011-2.4202005 0-4.3823014-1.9612008-4.3823014-4.3814011z" fill-rule="evenodd"/><path d="m17.0007019 14.1557999c1.5709 0 2.8444977 1.2733994 2.8444977 2.8443985 0 1.5709-1.2735977 2.8445015-2.8444977 2.8445015-1.571003 0-2.8445015-1.2736015-2.8445015-2.8445015 0-1.5709992 1.2734985-2.8443985 2.8445015-2.8443985z"/></g></svg>