<svg enable-background="new 0 0 34 34" viewBox="0 0 34 34" xmlns="http://www.w3.org/2000/svg"><path clip-rule="evenodd" d="m17 1c-8.836998 0-16 7.1633987-16 16s7.163002 16 16 16 16-7.1633987 16-16-7.163002-16-16-16zm-8.3190002 13.2519989h3.6259995v10.8944016h-3.6259995zm3.8649978-3.3701973c-.0239944-1.068203-.7879944-1.8818016-2.0279999-1.8818016-1.2399979 0-2.0509949.8135986-2.0509949 1.8818016 0 1.0460968.7869949 1.8830986 2.0039978 1.8830986h.0230026c1.264 0 2.0519944-.8370018 2.0519944-1.8830986zm8.663002 3.1142998c2.3860016 0 4.1750031 1.5573997 4.1750031 4.903698l-.0009995 6.2466011h-3.625v-5.8286018c0-1.4639969-.5250015-2.4629974-1.8380051-2.4629974-1.0009995 0-1.5979996.6735001-1.8600006 1.3239975-.0960007.2331009-.1199951.5578995-.1199951.883503v6.0844002h-3.6259994s.0479965-9.8722 0-10.8945007h3.6259995v1.5430984c.4819946-.7417986 1.3439941-1.7991983 3.2689971-1.7991983z" fill="#001252" fill-rule="evenodd"/></svg>