<svg enable-background="new 0 0 34 34" viewBox="0 0 34 34" xmlns="http://www.w3.org/2000/svg"><path clip-rule="evenodd" d="m17 1c-8.8370056 0-16 7.1633987-16 16s7.1629944 16 16 16 16-7.1633987 16-16-7.1629944-16-16-16zm-.4459991 13.5586014-.0330048-.5536003c-.1009979-1.4349022.7830048-2.7456017 2.1820068-3.2540016.5149994-.1807976 1.3880005-.2033997 1.9589996-.0452003.223999.0678024.6490021.2937012.951004.4971008l.5479889.3729019.605011-.1921005c.3359985-.1016998.7829895-.2712021.9850006-.384201.1899872-.1016006.3579865-.1581001.3579865-.1241989 0 .1919975-.4139862.8473969-.7609863 1.2089005-.4700012.5084991-.3360138.5536995.6149902.2146988.5709991-.1921005.5820007-.1921005.4700012.0225983-.0670013.1130028-.4140015.5084-.7830048.8700027-.6269989.6213989-.6599884.6891975-.6599884 1.2089996 0 .8022003-.381012 2.4743996-.7610016 3.3895988-.7060089 1.7173996-2.2160034 3.4912987-3.727005 4.3838997-2.1269989 1.2541008-4.9579926 1.5704994-7.3419952.8361015-.7949981-.2486001-2.1600036-.881302-2.1600036-.9943009 0-.0339012.4140015-.0791016.9179993-.0904007 1.052002-.0225983 2.1040039-.3163986 2.9990082-.8361015l.6039886-.361599-.6929932-.2371979c-.9850006-.3390007-1.8690033-1.1186028-2.0930023-1.8530006-.0670013-.2373009-.0449982-.2486.5820007-.2486l.6490021-.0112991-.548996-.259903c-.6490021-.3275986-1.2420044-.8812981-1.5330048-1.4461975-.2120056-.4067993-.4810028-1.4349022-.4029999-1.5139999.022995-.0339012.2579956.0338974.526001.1242981.7720032.282402.8730011.2145996.4259949-.2598991-.8399963-.8586998-1.0970001-2.1355019-.6940002-3.3443985l.1900024-.5424004.7389984.7343979c1.5099945 1.4802017 3.2899933 2.3614998 5.3269958 2.6212997z" fill="#001252" fill-rule="evenodd"/></svg>