<svg enable-background="new 0 0 34 34" viewBox="0 0 34 34" xmlns="http://www.w3.org/2000/svg"><g fill="#001252"><path clip-rule="evenodd" d="m17 1c-8.8370056 0-16 7.1633987-16 16s7.1629944 16 16 16 16-7.1633987 16-16-7.1629944-16-16-16zm6.6679993 10.4994011c.7339935.2014999 1.3119965.7952995 1.5090027 1.5492973.3560028 1.3665009.3560028 4.2178001.3560028 4.2178001s0 2.8512001-.3560028 4.2179031c-.1970062.7539978-.7750092 1.3476982-1.5090027 1.5493965-1.3309937.3661004-6.6679993.3661004-6.6679993.3661004s-5.3370056 0-6.6679993-.3661003c-.7339935-.2016983-1.3130035-.7953987-1.5090027-1.5493965-.3560028-1.366703-.3560028-4.2179031-.3560028-4.2179031s0-2.8512993.3560028-4.2178001c.1959991-.7539978.7750092-1.3477974 1.5090027-1.5492973 1.3309937-.3661996 6.6679993-.3661996 6.6679993-.3661996s5.3370056 0 6.6679993.3661995z" fill-rule="evenodd"/><path d="m15.3999939 20.2000008v-5.3333015l4.2670135 2.6668015z"/></g></svg>